<svg xmlns="http://www.w3.org/2000/svg" viewBox="0 0 500 500"><g id="freepik--Floor--inject-41"><path d="M469,463.32c0,.14-97.62.26-218,.26s-218-.12-218-.26,97.6-.26,218-.26S469,463.17,469,463.32Z" style="fill:#263238"></path></g><g id="freepik--Character--inject-41"><path d="M352.12,121.05,332.9,137.34c-4,3.41-8.33,7.33-8.92,12.57-.55,4.85,2.3,9.71,1.32,14.5-1.19,5.84-7.8,10.05-7.31,16,.27,3.25,2.67,5.93,3.46,9.09,1.41,5.67-2.54,11.28-2.84,17.11-.38,7.31,5.13,13.81,11.57,17.28S344,228.56,351,230.57s14.22,5.19,18.33,11.24" style="fill:#263238"></path><path d="M432.89,155c1.45-5.05-2.25-10.18-6.5-13.25s-9.34-5.13-12.83-9.05c-3.09-3.47-4.59-8-6.93-12a32.31,32.31,0,0,0-56.32.87c-3.68,6.78-4.63,15.65-.16,21.92,5.2,7.28,15.33,8.56,24.26,9s19,1.18,24.78,8c3.51,4.1,4.7,9.62,6.16,14.81s3.54,10.66,8,13.62,12,1.75,13.49-3.42" style="fill:#263238"></path><path d="M412.26,150.93a8.77,8.77,0,0,1,5.38,10.58h0L383.13,275.08c-3.69,13.51-25.48,16.05-39.91,12h0C328.64,283,330,275.66,333.13,262.7c5.22-21.64,7.32-29.72,7.28-29.6s-17.73-7.87-15.32-33c1.2-12.51,6.9-32.06,12.09-47.91,4.66-14.26,18.87-29.57,32.92-24.3Z" style="fill:#ffbe9d"></path><path d="M350.21,169.15c-.16-.56-3.14-.08-6.2-1.67s-4.51-4.28-5-4.07c-.25.08-.24.93.37,2.15a8.79,8.79,0,0,0,3.79,3.72,8.34,8.34,0,0,0,5.17.86C349.63,169.91,350.29,169.4,350.21,169.15Z" style="fill:#263238"></path><path d="M383.24,179.44c-.27-.56-3.36.49-6.9-.65s-5.58-3.74-6.1-3.43c-.25.13-.09,1,.79,2.23a9.49,9.49,0,0,0,4.71,3.28,9.13,9.13,0,0,0,5.66,0C382.76,180.36,383.38,179.7,383.24,179.44Z" style="fill:#263238"></path><path d="M353.24,194.22c.06-.18-1.92-1.08-5.17-2.38-.83-.3-1.59-.68-1.58-1.3a4.49,4.49,0,0,1,1.22-2.38l4.2-5.83c5.88-8.33,10.38-15.27,10-15.5s-5.38,6.32-11.27,14.65l-4.1,5.9c-.57.89-1.41,1.84-1.31,3.23a2.25,2.25,0,0,0,1.08,1.61,6.23,6.23,0,0,0,1.4.58C351.08,193.85,353.18,194.41,353.24,194.22Z" style="fill:#263238"></path><path d="M340.72,233.1a63.54,63.54,0,0,0,34.61-.27s-12.15,14.57-35.76,6.06Z" style="fill:#eb996e"></path><path d="M373.15,165.45c.1,1,3.54,1.43,7.33,2.91s6.68,3.37,7.41,2.69c.33-.33,0-1.32-1-2.53a13.74,13.74,0,0,0-11.23-4.27C374,164.46,373.12,165,373.15,165.45Z" style="fill:#263238"></path><path d="M343.29,151.71c.23,1.1,3.07,1.45,6,2.83s5.13,3.17,6.11,2.6c.45-.28.45-1.27-.26-2.56a9.64,9.64,0,0,0-9.77-4.38C344,150.52,343.21,151.18,343.29,151.71Z" style="fill:#263238"></path><path d="M409.07,234.81a22.16,22.16,0,0,1-19.46-30.29c2.28-5.75,7-11,6.41-17.12-.82-8.13-10.65-13.08-11.52-21.21-.5-4.72,2.24-9.39,1.5-14.09-.7-4.41-4.29-7.77-8-10.28s-7.79-4.64-10.53-8.17-3.58-9.09-.42-12.25a236.81,236.81,0,0,1,49.55,26.38c3.57,2.49,7.26,5.32,8.69,9.43,1.52,4.34.18,9.11-1.17,13.51L404.4,235.08" style="fill:#263238"></path><path d="M391.66,248c11.32,2.58,23.2-3.7,31.2-12.12s12.19-19.87,13.79-31.37.8-23.18,0-34.76c-.34-4.85-.7-9.81-2.63-14.27s-5.79-8.4-10.6-9.08" style="fill:#263238"></path><path d="M436.06,204.84c6.88,2.6,14.92.53,20.73-4s9.63-11.15,12.24-18A29.56,29.56,0,0,0,471.37,172a13.76,13.76,0,0,0-4.17-10.06c-4.67-4.15-12-3.41-17.69-.8-12.9,5.92-21.17,20.6-19.56,34.69" style="fill:#263238"></path><path d="M467.54,161.43a2.73,2.73,0,0,1,.11.45,13.22,13.22,0,0,1,.21,1.32,22.27,22.27,0,0,1,0,4.89,20.55,20.55,0,0,1-2,7,17.3,17.3,0,0,1-5.81,6.71A32.92,32.92,0,0,1,444.89,187a18.26,18.26,0,0,1-4.89-.27,8.33,8.33,0,0,1-1.29-.33c-.29-.09-.44-.14-.43-.16s.62.13,1.76.29a20.1,20.1,0,0,0,4.82.1,33.79,33.79,0,0,0,14.91-5.24,16.91,16.91,0,0,0,5.67-6.49,20.87,20.87,0,0,0,2.06-6.8A33.43,33.43,0,0,0,467.54,161.43Z" style="fill:#455a64"></path><path d="M467.45,186.6a4.92,4.92,0,0,1-.88.85,11.44,11.44,0,0,1-1.12.9c-.46.32-1,.72-1.57,1.08a35.09,35.09,0,0,1-10.09,4.33A36.08,36.08,0,0,1,442.87,195a20.67,20.67,0,0,1-3.31-.4,6.67,6.67,0,0,1-1.19-.31c0-.1,1.72.29,4.51.34a39.36,39.36,0,0,0,10.78-1.36,39,39,0,0,0,10-4.14C466.08,187.68,467.39,186.52,467.45,186.6Z" style="fill:#455a64"></path><path d="M435.74,169.62a5,5,0,0,1-1.15-.14,6.61,6.61,0,0,1-2.95-1.52,10.2,10.2,0,0,1-1.62-1.79,14.54,14.54,0,0,1-1.4-2.51,17.25,17.25,0,0,1-1-3.14,32.74,32.74,0,0,1-.55-3.66,38.84,38.84,0,0,0-1.4-8.24,11.31,11.31,0,0,0-2.3-4,14.28,14.28,0,0,0-3.87-2.95c-3-1.6-6.46-2.52-9.88-4a18.67,18.67,0,0,1-4.89-2.94,13.93,13.93,0,0,1-3.47-4.75c-1.69-3.59-2.45-7.44-4.51-10.48a17.71,17.71,0,0,0-8.11-6.48,20.43,20.43,0,0,0-9.36-1.43,21.49,21.49,0,0,0-8,2.34,27.65,27.65,0,0,0-9.2,7.76c-.86,1.14-1.48,2.08-1.87,2.72-.19.3-.34.55-.45.74l-.17.24a22,22,0,0,1,2.33-3.82,28.33,28.33,0,0,1,3.51-3.93,25.32,25.32,0,0,1,5.68-4,21.74,21.74,0,0,1,8.09-2.44,20.83,20.83,0,0,1,9.58,1.41,18.08,18.08,0,0,1,8.35,6.65c2.14,3.15,2.9,7,4.56,10.54a13.45,13.45,0,0,0,3.34,4.58,18.41,18.41,0,0,0,4.76,2.87c3.37,1.48,6.86,2.41,9.89,4.06a14.86,14.86,0,0,1,4,3.06,11.77,11.77,0,0,1,2.35,4.12,37.93,37.93,0,0,1,1.36,8.35c.14,1.27.27,2.49.51,3.61a18.21,18.21,0,0,0,1,3.1,15.57,15.57,0,0,0,1.34,2.48,10,10,0,0,0,1.56,1.78,6.53,6.53,0,0,0,2.84,1.58C435.34,169.57,435.75,169.58,435.74,169.62Z" style="fill:#455a64"></path><path d="M435.8,178.31l-.26,0a6.26,6.26,0,0,1-.76,0,8.83,8.83,0,0,1-2.84-.65,14.55,14.55,0,0,1-7.36-7.55,41.82,41.82,0,0,1-2.36-7,60.2,60.2,0,0,0-2.47-8.05,16.13,16.13,0,0,0-5.48-7.25c-2.64-1.83-6.07-2.23-9.47-2.48s-6.91-.45-9.83-2.16a10.71,10.71,0,0,1-2-1.5,12.38,12.38,0,0,1-1.53-1.87,30.17,30.17,0,0,1-2.16-4.07,38.53,38.53,0,0,0-2-3.85,13.31,13.31,0,0,0-2.58-3.1,15.63,15.63,0,0,0-6.39-3.33,16.48,16.48,0,0,0-6-.44,14.78,14.78,0,0,0-4.4,1.14,21.29,21.29,0,0,0-3.35,2l.19-.17.58-.48.44-.35.58-.35a9.12,9.12,0,0,1,1.48-.8,14.64,14.64,0,0,1,4.44-1.24,16.84,16.84,0,0,1,6.1.37,16.07,16.07,0,0,1,6.59,3.37,16.57,16.57,0,0,1,1.44,1.46,17.91,17.91,0,0,1,1.24,1.72,37.43,37.43,0,0,1,2,3.89,31,31,0,0,0,2.15,4,11.82,11.82,0,0,0,1.46,1.78,10.47,10.47,0,0,0,1.87,1.42c2.77,1.62,6.21,1.81,9.62,2.08a37.34,37.34,0,0,1,5.08.66,13.14,13.14,0,0,1,4.63,1.92,16.56,16.56,0,0,1,5.63,7.49,58.18,58.18,0,0,1,2.45,8.12,40.43,40.43,0,0,0,2.28,7,14.43,14.43,0,0,0,7.1,7.52A10.2,10.2,0,0,0,435.8,178.31Z" style="fill:#455a64"></path><path d="M436.4,205.13a6,6,0,0,1,.17-1.28c.16-.82.35-2,.57-3.47a77,77,0,0,0,.83-11.52,79.81,79.81,0,0,0-.91-11.53c-.23-1.46-.44-2.64-.59-3.46a6.16,6.16,0,0,1-.19-1.28,5.56,5.56,0,0,1,.38,1.24c.22.8.49,2,.76,3.44a66.92,66.92,0,0,1,1.08,11.58,65,65,0,0,1-1,11.59c-.26,1.47-.52,2.65-.73,3.45A6.9,6.9,0,0,1,436.4,205.13Z" style="fill:#FFC719"></path><path d="M437.17,200.81a16.46,16.46,0,0,1-1.9,3.39,20.59,20.59,0,0,1-8,6.83,16.3,16.3,0,0,1-7.17,1.56,15.92,15.92,0,0,1-8.05-2.45,13.24,13.24,0,0,1-5.72-7.26,18,18,0,0,1-.73-4.91c-.05-1.67,0-3.37.15-5.07.2-3.38.47-6.77-.52-9.78a10.14,10.14,0,0,0-2.32-4,14.76,14.76,0,0,0-3.61-2.61c-2.57-1.39-5.24-2.37-7.46-3.87a13.17,13.17,0,0,1-2.88-2.56,14.16,14.16,0,0,1-1.81-3,19.49,19.49,0,0,1-1.32-5.92,35.62,35.62,0,0,1-.05-4.57c.07-1.25.15-2.22.22-2.87,0-.3.06-.55.08-.75a.79.79,0,0,1,0-.25.86.86,0,0,1,0,.26c0,.2,0,.44,0,.75,0,.65-.08,1.62-.11,2.87a39,39,0,0,0,.13,4.54,19.26,19.26,0,0,0,1.37,5.79,13.22,13.22,0,0,0,1.79,2.95,12.58,12.58,0,0,0,2.8,2.45c2.17,1.45,4.82,2.41,7.45,3.81a15.69,15.69,0,0,1,3.74,2.68,10.49,10.49,0,0,1,2.44,4.14c1,3.15.75,6.59.56,10-.11,1.71-.2,3.38-.15,5a16.78,16.78,0,0,0,.7,4.77,12.83,12.83,0,0,0,5.49,7,15.57,15.57,0,0,0,7.8,2.42,16.15,16.15,0,0,0,7-1.46,20.81,20.81,0,0,0,8-6.62,24.88,24.88,0,0,0,1.57-2.4L437,201Z" style="fill:#455a64"></path><path d="M342.18,202.13a6.25,6.25,0,0,1,6,.45,5.67,5.67,0,0,1,2.55,3.64,3.59,3.59,0,0,1-1.61,3.79c-1.42.75-3.29.14-4.55-1a13,13,0,0,1-2.74-4.33,3.66,3.66,0,0,1-.42-1.35,1.13,1.13,0,0,1,.58-1.14" style="fill:#eb996e"></path><path d="M453.7,187.85a5.13,5.13,0,0,1,.9,0c.6,0,1.47,0,2.6-.06a24.13,24.13,0,0,0,9.15-2.31,18.4,18.4,0,0,0,5.23-3.84,14.89,14.89,0,0,0,3.68-6.4,16.49,16.49,0,0,0-4.53-15.69,16.88,16.88,0,0,0-7.66-4.23,20.36,20.36,0,0,0-15.21,2.18,22.81,22.81,0,0,0-5.07,4.1,25.94,25.94,0,0,0-5,8c-.43,1-.69,1.88-.87,2.45-.07.26-.14.47-.19.64a.73.73,0,0,1-.09.22.67.67,0,0,1,0-.23l.15-.66a21.2,21.2,0,0,1,.78-2.49,25.11,25.11,0,0,1,4.95-8.18,22.8,22.8,0,0,1,5.12-4.22,20.72,20.72,0,0,1,15.56-2.3,17.3,17.3,0,0,1,7.9,4.35,16.94,16.94,0,0,1,4.63,16.18,15.44,15.44,0,0,1-3.83,6.58,18.84,18.84,0,0,1-5.39,3.87,23.48,23.48,0,0,1-9.3,2.18,25.07,25.07,0,0,1-2.61,0l-.68-.06A.74.74,0,0,1,453.7,187.85Z" style="fill:#263238"></path><path d="M451.38,146.35c.05.11-1.54.73-3.72,2.33a17.18,17.18,0,0,0-1.71,1.41,21.7,21.7,0,0,0-1.78,1.8,23.65,23.65,0,0,0-5.28,10.21,23.16,23.16,0,0,0-.44,2.5,17.8,17.8,0,0,0-.16,2.2c0,2.71.37,4.37.26,4.39a4.79,4.79,0,0,1-.3-1.15,7.74,7.74,0,0,1-.21-1.39,14.36,14.36,0,0,1-.12-1.85,17.87,17.87,0,0,1,.1-2.25,20.92,20.92,0,0,1,.4-2.55,24.72,24.72,0,0,1,2-5.57,24.39,24.39,0,0,1,3.38-4.86,19.37,19.37,0,0,1,1.85-1.8,18.15,18.15,0,0,1,1.78-1.39,15,15,0,0,1,1.58-1,8,8,0,0,1,1.25-.62A5.36,5.36,0,0,1,451.38,146.35Z" style="fill:#263238"></path><path d="M399.9,206a12.31,12.31,0,0,0,1.19-3.58,15.44,15.44,0,0,0-2.15-9.87,27.13,27.13,0,0,0-4.43-5.56c-1.82-1.81-3.93-3.58-6.1-5.52a39.55,39.55,0,0,1-6.24-6.67,16.82,16.82,0,0,1-3.41-9.16c-.12-3.42.85-6.62.78-9.74a12.53,12.53,0,0,0-3.31-8.09,51.68,51.68,0,0,0-6-5.61,28.92,28.92,0,0,1-5-5.2,11.59,11.59,0,0,1-2.18-5.51,9.42,9.42,0,0,1,.53-4.46,6.37,6.37,0,0,1,1.58-2.36,4.37,4.37,0,0,1,.78-.6s-.26.22-.71.68a6.34,6.34,0,0,0-1.46,2.35,9.38,9.38,0,0,0-.43,4.35,11.35,11.35,0,0,0,2.2,5.34,28.9,28.9,0,0,0,5,5.09,50.36,50.36,0,0,1,6,5.62,15.81,15.81,0,0,1,2.45,3.79,11.39,11.39,0,0,1,1,4.6c.08,3.22-.89,6.43-.77,9.73a16.46,16.46,0,0,0,3.31,8.89,39.71,39.71,0,0,0,6.14,6.61c2.16,1.93,4.27,3.72,6.08,5.57a27,27,0,0,1,4.45,5.68,15.41,15.41,0,0,1,2,10.08,10.32,10.32,0,0,1-.88,2.7l-.37.64A.87.87,0,0,1,399.9,206Z" style="fill:#263238"></path><path d="M331.66,148.44a9.08,9.08,0,0,1-.33-1.49c-.17-1-.42-2.36-.59-4.12a25.31,25.31,0,0,1,.08-6.18,14,14,0,0,1,3-7,10.07,10.07,0,0,1,6.49-3.83,12.09,12.09,0,0,1,3.34.19,20.8,20.8,0,0,0,2.81.36,5.12,5.12,0,0,0,3.73-1.24,4.49,4.49,0,0,0,.82-1.23s0,.14-.08.39a2.68,2.68,0,0,1-.59,1,5.18,5.18,0,0,1-3.88,1.47c-1.8,0-3.85-.7-6.09-.44a9.66,9.66,0,0,0-6.15,3.68,13.85,13.85,0,0,0-2.9,6.71,26.54,26.54,0,0,0-.18,6.08c.12,1.74.31,3.15.42,4.12A8.94,8.94,0,0,1,331.66,148.44Z" style="fill:#263238"></path><path d="M348.48,210.33a5.45,5.45,0,0,0,1.67-1.46,4.19,4.19,0,0,0,.72-2.23A4.34,4.34,0,0,0,350,204a5.13,5.13,0,0,0-2.3-1.72,6.55,6.55,0,0,0-2.36-.38c-1.39,0-2.22.41-2.25.32a4.28,4.28,0,0,1,2.23-.69,6.26,6.26,0,0,1,2.55.3,5.41,5.41,0,0,1,2.55,1.86,4.69,4.69,0,0,1,1,3,4.34,4.34,0,0,1-.9,2.42A2.81,2.81,0,0,1,348.48,210.33Z" style="fill:#263238"></path><path d="M141.22,406.71l47.72,9.17,4.41-25.36-16.59-3.34a52.82,52.82,0,0,0-.64-8.27c-.69-4.05-6.35-9.46-5.61-15.69a5.05,5.05,0,0,0-.6-3.38,2.08,2.08,0,0,0-3.48.09c-5.59,8.9-3,15-2.81,17.67.18,2.87-15.25-1.45-15.25-1.45" style="fill:#ffbe9d"></path><path d="M154.68,401.58a2.48,2.48,0,0,1,.11-.92,7.85,7.85,0,0,1,1-2.37,9.44,9.44,0,0,1,2.58-2.82,9.1,9.1,0,0,1,4.41-1.69l-.2.39c-.1-.2-.22-.41-.34-.62a12.42,12.42,0,0,1-.89-8.8,11.24,11.24,0,0,1,1-2.52,3.37,3.37,0,0,1,.57-.81,22.64,22.64,0,0,0-1.23,3.42,12.56,12.56,0,0,0,1,8.47l.32.59.19.36-.39,0a8.83,8.83,0,0,0-4.18,1.57,9.41,9.41,0,0,0-2.56,2.62A14,14,0,0,0,154.68,401.58Z" style="fill:#eb996e"></path><path d="M330.46,258.34s-19.45-3-36.73,23.16-40.67,105.91-40.67,105.91l-66.07-6-6.25,36.45,71.67,21.19a32.74,32.74,0,0,0,19.57-.12,38.44,38.44,0,0,0,25.48-28.58l14-66.64Z" style="fill:#FFC719"></path><path d="M259.92,407.69c-.08,0,0-1.35-.15-3.5a38.93,38.93,0,0,0-1.41-8.29,36.39,36.39,0,0,0-3.21-7.75,4,4,0,0,0-1.79-1.65,4.58,4.58,0,0,0-.9-.15s.07,0,.24-.08a1.68,1.68,0,0,1,.72,0,3.83,3.83,0,0,1,2,1.64,30.94,30.94,0,0,1,3.41,7.81,33.07,33.07,0,0,1,1.28,8.41c0,1.09,0,2-.07,2.58A3.08,3.08,0,0,1,259.92,407.69Z" style="fill:#263238"></path><g style="opacity:0.1"><path d="M268.58,358.58A78.3,78.3,0,0,0,266.66,404c2.35,9.05,7,18.35,15.49,22.3,1.52.71,3.38,1.21,4.82.36s1.94-2.91,2.16-4.68c.38-2.92.66-6-.33-8.74-1.2-3.36-4.06-5.78-6.44-8.42-5.38-5.95-8.69-13.53-10.64-21.31s-2.63-15.8-3.3-23.79"></path></g><path d="M321.81,276.59c-.05.09-1.11-.48-3-1a20.34,20.34,0,0,0-3.3-.67,21.46,21.46,0,0,0-4.11-.06,21.73,21.73,0,0,0-4.05.77,21.47,21.47,0,0,0-3.13,1.24c-1.72.87-2.67,1.61-2.73,1.53s.2-.23.63-.57a11.81,11.81,0,0,1,1.93-1.28,17.57,17.57,0,0,1,3.16-1.37,18.9,18.9,0,0,1,8.36-.74,17.75,17.75,0,0,1,3.35.8,13.83,13.83,0,0,1,2.13.92C321.57,276.4,321.83,276.56,321.81,276.59Z" style="fill:#fafafa"></path><path d="M209.72,425.8a1.88,1.88,0,0,1,.36-.34,10.43,10.43,0,0,0,1-.92,14.49,14.49,0,0,0,3-4.14,15.27,15.27,0,0,0,1.49-7.35,13.33,13.33,0,0,0-1-4.33,17.34,17.34,0,0,0-2.47-4.11c-2-2.61-4.35-4.84-6-7.27a12.74,12.74,0,0,1-2.58-7.26,8,8,0,0,1,1.61-4.93,4.35,4.35,0,0,1,1.45-1.25,11.1,11.1,0,0,0-1.28,1.38,8,8,0,0,0-1.41,4.8,12.52,12.52,0,0,0,2.61,7c1.62,2.37,3.94,4.57,6,7.23a18,18,0,0,1,2.52,4.24,13.6,13.6,0,0,1,1,4.49,15.38,15.38,0,0,1-1.64,7.54,13.81,13.81,0,0,1-3.18,4.13,8.65,8.65,0,0,1-1.13.86C209.87,425.73,209.73,425.82,209.72,425.8Z" style="fill:#fafafa"></path><path d="M260,440.9c-.05,0,.47-.7,1.24-2a22.59,22.59,0,0,0,2.45-5.85,14.59,14.59,0,0,0-.51-9.19c-1.35-3.28-4-6.27-6.82-9.23s-5.63-5.87-7.25-9.14a17.38,17.38,0,0,1,0-15.51,12.8,12.8,0,0,1,.88-1.51,3.25,3.25,0,0,1,.37-.49s-.43.72-1.07,2.08a18.27,18.27,0,0,0-1.57,6.13,17,17,0,0,0,1.83,9.08c1.6,3.17,4.33,6,7.19,9s5.53,6,6.9,9.41a14.8,14.8,0,0,1,.41,9.46A20.79,20.79,0,0,1,261.4,439a16.37,16.37,0,0,1-1,1.43A2.94,2.94,0,0,1,260,440.9Z" style="fill:#fafafa"></path><path d="M330.46,258.34s-26.07,30.49-44.12,69.13l5.8,135.85H431.69l-32.28-57c-4.16-9.92,1-24,5.42-32.64,4.52-8.77,7-17.23,9.79-23.95a122.64,122.64,0,0,0,9.93-43.45c1.44-37.48-38.44-47.67-38.44-47.67Z" style="fill:#FFC719"></path><path d="M334.5,258.34S294.84,324,307.27,323.58s81.26-65.24,81.26-65.24v-7.19Z" style="fill:#ffbe9d"></path><path d="M254.59,280.32l17.59,102.82c3.52,29.38,37.13,44.57,61.35,27.58l.69-.49,78.31-89.43a27.24,27.24,0,0,0-2.5-38.28h0a27.25,27.25,0,0,0-38.65,2.58L321,349.57,300.73,272.5Z" style="fill:#FFC719"></path><path d="M406.66,279.91s-.16-.11-.45-.34l-1.31-1.06a21,21,0,0,0-5.8-3l-1.06-.32-1.15-.22a6.79,6.79,0,0,0-1.21-.18c-.42,0-.85-.11-1.29-.12a21.93,21.93,0,0,0-5.72.53,34.26,34.26,0,0,0-12.83,6.11,42,42,0,0,0-6.22,5.75c-1,1.11-1.93,2.31-2.92,3.52s-2,2.44-3,3.71c-4.07,5.08-8.39,10.64-13,16.62-9.15,12-19.34,25.61-30.33,40.64l-.28.38-.11-.45c-5.91-23.87-12.49-50.47-19.54-79l.29.18-46.15,7.83.21-.3,4.27,24.92c4.11,24,8.1,47.3,11.88,69.4.48,2.76.95,5.51,1.41,8.23.11.69.25,1.34.34,2.07l.25,2,.12,1,.22,1,.45,2a33.48,33.48,0,0,0,7.65,13.83,38.5,38.5,0,0,0,12.5,8.9,46.2,46.2,0,0,0,14.32,3.83h.27c.23-.13-.36.12,0,.43h-.09a3.77,3.77,0,0,0-.47,0s-.12,0,.06,0c-.08-.77,0-.22,0-.39l.11,0,.25,0,.49,0,2,.12a39.18,39.18,0,0,0,3.92-.14,37.4,37.4,0,0,0,7.58-1.49,51,51,0,0,0,13.45-6.47,64.17,64.17,0,0,0,5.75-4.35c1.79-1.55,3.5-3.17,5.18-4.76q5-4.79,9.55-9.53t8.47-9.4c2.65-3.09,5.11-6.16,7.53-9.07l13.22-16L404,333.91,409,328l1.27-1.51c.28-.34.44-.51.44-.51l-.41.53L409,328l-4.86,6c-4.28,5.21-10.53,12.85-18.48,22.56l-13.18,16.07c-2.41,2.91-4.86,6-7.51,9.09s-5.47,6.25-8.47,9.43-6.19,6.36-9.54,9.56c-1.69,1.6-3.39,3.21-5.2,4.78a67,67,0,0,1-5.78,4.39,51.2,51.2,0,0,1-13.55,6.54,37.69,37.69,0,0,1-11.64,1.66l-2-.12-.5,0-.25,0-.14,0c0-.17,0,.37-.15-.42.22-.09.13,0,.19,0a4.64,4.64,0,0,1,.53,0l.16,0c.42.34-.27.6-.06.47h-.37a46.59,46.59,0,0,1-14.46-3.85,39,39,0,0,1-12.67-9,34,34,0,0,1-7.77-14l-.45-2-.23-1-.13-1-.25-2.06c-.08-.64-.22-1.35-.33-2q-.71-4.1-1.41-8.23c-3.79-22.1-7.79-45.39-11.9-69.4-1.46-8.54-2.91-17-4.27-24.92l0-.25.25-.05,46.15-7.81.23,0,.06.23c7,28.49,13.58,55.1,19.47,79l-.38-.07c11-15,21.23-28.65,30.4-40.6,4.59-6,8.92-11.53,13-16.6,1-1.27,2-2.5,3-3.71s1.94-2.4,2.93-3.51a42,42,0,0,1,6.28-5.77,34.33,34.33,0,0,1,12.94-6.1,21.82,21.82,0,0,1,5.77-.5c.45,0,.88.08,1.3.12a8,8,0,0,1,1.22.19l1.15.24,1.07.33a20.27,20.27,0,0,1,5.8,3C406.09,279.41,406.66,279.91,406.66,279.91Z" style="fill:#263238"></path><g style="opacity:0.2"><path d="M301.37,416.5c3.51,9.71,18.42,14,30.1,12.46,17.11-2.2,29.8-14.44,38.34-29.43s14.76-29.35,18.34-46.23L356.43,389c-7.52,8.46-15.15,17-24.58,23.29s-19.36,6.36-30.48,4.21Z"></path></g><path d="M317,370.93a15.4,15.4,0,0,1,.14-2.9c.16-1.78.46-4.23.91-6.93s1-5.11,1.4-6.85a14.45,14.45,0,0,1,.82-2.78,17.33,17.33,0,0,1-.46,2.86c-.33,1.75-.8,4.17-1.25,6.86s-.8,5.12-1.06,6.89A15.7,15.7,0,0,1,317,370.93Z" style="fill:#263238"></path><path d="M304.46,287.89c0,.06-.8-.11-2.23,0a13.25,13.25,0,0,0-5.72,1.74,20.2,20.2,0,0,0-6.56,6,92,92,0,0,0-5.66,9.48,34.55,34.55,0,0,1-6.65,8.9,16.78,16.78,0,0,1-4.06,2.72,14,14,0,0,1-4.1,1.15,10.74,10.74,0,0,1-6-.9,6.62,6.62,0,0,1-1.86-1.26c0-.06.64.5,1.94,1.08a10.89,10.89,0,0,0,5.9.71,13.37,13.37,0,0,0,4-1.18,15.63,15.63,0,0,0,3.92-2.68,34.7,34.7,0,0,0,6.53-8.8,87.58,87.58,0,0,1,5.72-9.51,20.22,20.22,0,0,1,6.77-6,13,13,0,0,1,5.89-1.61,5.93,5.93,0,0,1,1,0,4.11,4.11,0,0,1,.7.08A2.93,2.93,0,0,1,304.46,287.89Z" style="fill:#fafafa"></path><path d="M269.74,366.08a2.89,2.89,0,0,1-.11-.69,17.29,17.29,0,0,1-.08-2,22.1,22.1,0,0,1,7.46-16.3,22.74,22.74,0,0,1,12.18-5.43,34.43,34.43,0,0,1,7,.06,38.62,38.62,0,0,0,6.41.15,12.6,12.6,0,0,0,5.44-1.67,13,13,0,0,0,3.69-3.33,13.27,13.27,0,0,0,2.61-6.71,21.61,21.61,0,0,0,0-2.69,8.78,8.78,0,0,1,.21,2.7,13.22,13.22,0,0,1-6.28,10.4,12.62,12.62,0,0,1-5.62,1.77c-4.16.45-8.68-.7-13.36-.16a22.4,22.4,0,0,0-11.92,5.27,21.87,21.87,0,0,0-6.12,8.8,22.9,22.9,0,0,0-1.46,7.15c0,.86,0,1.54,0,2A3.1,3.1,0,0,1,269.74,366.08Z" style="fill:#fafafa"></path><path d="M319,359.89c.06,0,0,1,.28,2.8a41.5,41.5,0,0,0,2.36,7.32,31.1,31.1,0,0,1,1.54,5.13,23.72,23.72,0,0,1,.37,6.15A28.34,28.34,0,0,1,319,394.55a32,32,0,0,1-10,9.8,41.93,41.93,0,0,1-10.47,4.7,49.41,49.41,0,0,1-7.56,1.62c-.91.13-1.61.19-2.09.23a3.35,3.35,0,0,1-.73,0,4.75,4.75,0,0,1,.72-.13c.47-.07,1.17-.17,2.07-.33a55.61,55.61,0,0,0,7.49-1.77A43.19,43.19,0,0,0,308.69,404a32.13,32.13,0,0,0,9.85-9.68,28.23,28.23,0,0,0,4.48-13,23.75,23.75,0,0,0-.31-6,31.31,31.31,0,0,0-1.47-5.09,39.08,39.08,0,0,1-2.21-7.41,14.39,14.39,0,0,1-.14-2.11A3.47,3.47,0,0,1,319,359.89Z" style="fill:#fafafa"></path><path d="M367.58,375.76a2.91,2.91,0,0,1-.07-.63,15.44,15.44,0,0,0-.16-1.78,18.55,18.55,0,0,0-2-6.22,21.5,21.5,0,0,0-2.5-3.76,22.14,22.14,0,0,0-3.79-3.51,18.82,18.82,0,0,0-5.09-2.55,21.7,21.7,0,0,0-6.06-.94,48.68,48.68,0,0,1-6.23-.47,11.18,11.18,0,0,1-5.36-2.36,11.73,11.73,0,0,1-3.12-4.28A15.82,15.82,0,0,1,332,344.8a28.66,28.66,0,0,1,.13-6.64c.1-.77.19-1.37.26-1.78a2.69,2.69,0,0,1,.13-.61,2.5,2.5,0,0,1,0,.63c0,.46-.09,1.05-.16,1.79a30.51,30.51,0,0,0,0,6.56,15.29,15.29,0,0,0,1.21,4.33,11.37,11.37,0,0,0,3,4.1,10.7,10.7,0,0,0,5.14,2.21,46.68,46.68,0,0,0,6.16.46,21.85,21.85,0,0,1,6.2,1,19.22,19.22,0,0,1,5.21,2.65,23.11,23.11,0,0,1,3.85,3.62A21.87,21.87,0,0,1,365.7,367a17.6,17.6,0,0,1,1.85,6.37,10.83,10.83,0,0,1,.06,1.8A2.51,2.51,0,0,1,367.58,375.76Z" style="fill:#fafafa"></path><path d="M396.37,340.06a4.47,4.47,0,0,1-.05-.62,14.12,14.12,0,0,0-.13-1.78,18.58,18.58,0,0,0-1.92-6.2,22.07,22.07,0,0,0-2.54-3.7,19.12,19.12,0,0,0-3.89-3.34,16.4,16.4,0,0,0-5.2-2.21,34.89,34.89,0,0,0-6.09-.71,49.4,49.4,0,0,1-6.19-.58,15.54,15.54,0,0,1-5.46-2,16.68,16.68,0,0,1-6.43-7.32,15.46,15.46,0,0,1-1.45-6.43l0-1c0-.28.07-.53.1-.75a4.48,4.48,0,0,1,.11-.62,2.57,2.57,0,0,1,0,.63c0,.22,0,.47-.05.75s0,.65,0,1a16,16,0,0,0,1.59,6.27,16.44,16.44,0,0,0,6.34,7.07,15.46,15.46,0,0,0,5.3,1.93,49.5,49.5,0,0,0,6.12.56,35.64,35.64,0,0,1,6.19.73,17.24,17.24,0,0,1,5.34,2.3,19.22,19.22,0,0,1,4,3.47,21.18,21.18,0,0,1,2.53,3.82,17.89,17.89,0,0,1,1.81,6.34,12.6,12.6,0,0,1,0,1.8A2.5,2.5,0,0,1,396.37,340.06Z" style="fill:#fafafa"></path><path d="M424.26,301.94a12.88,12.88,0,0,0-.57-1.92,9,9,0,0,0-3.63-3.92,13.49,13.49,0,0,0-3.44-1.45,20.87,20.87,0,0,0-4.28-.58c-3-.18-6.46.17-10-.45A23.53,23.53,0,0,1,393,289.8a24.1,24.1,0,0,1-5.91-5.69,22.15,22.15,0,0,1-2.72-4.82c-.26-.6-.39-1.1-.5-1.42a1.91,1.91,0,0,1-.13-.51,29.17,29.17,0,0,0,3.64,6.53,24.69,24.69,0,0,0,5.89,5.52,23.47,23.47,0,0,0,9.11,3.69c3.46.61,6.87.29,10,.49a20.53,20.53,0,0,1,4.36.64,13.39,13.39,0,0,1,3.52,1.56,8.75,8.75,0,0,1,3.62,4.16A5,5,0,0,1,424.26,301.94Z" style="fill:#fafafa"></path><path d="M403.33,413.65a1,1,0,0,1-.31,0l-.88-.18c-.77-.15-1.91-.39-3.4-.58a19.93,19.93,0,0,0-5.42,0,14.39,14.39,0,0,0-3.24.91,28,28,0,0,0-3.37,1.76c-2.3,1.37-4.72,3-7.38,4.75a52.33,52.33,0,0,1-8.91,4.76,47.92,47.92,0,0,1-22.75,3.28,63.38,63.38,0,0,1-11.73-2.53c-3.7-1.11-7.22-2.35-10.61-3.39a70.57,70.57,0,0,0-9.74-2.42,39.33,39.33,0,0,0-8.71-.47,25.24,25.24,0,0,0-12,3.52l-.89.57-.74.56a10.68,10.68,0,0,0-1.13.92l-.66.61-.24.19s.06-.09.2-.23l.63-.64a8.83,8.83,0,0,1,1.1-1c.23-.18.47-.39.73-.59l.89-.59a25.09,25.09,0,0,1,12.09-3.72,39.35,39.35,0,0,1,8.8.41,70.46,70.46,0,0,1,9.81,2.39c6.8,2,14.11,5,22.25,5.86a47.65,47.65,0,0,0,22.52-3.21,51.73,51.73,0,0,0,8.86-4.68c2.66-1.69,5.1-3.34,7.43-4.69a26.47,26.47,0,0,1,3.42-1.76,15.29,15.29,0,0,1,3.33-.89,19.63,19.63,0,0,1,5.49.09c1.49.22,2.63.49,3.4.68l.87.23Z" style="fill:#fafafa"></path><path d="M403.33,376.84c0,.06-.6-.19-1.7-.4a13.78,13.78,0,0,0-4.69,0,23,23,0,0,0-6.6,2.25c-2.37,1.18-4.8,2.8-7.44,4.38a28.51,28.51,0,0,1-8,3.53,15,15,0,0,1-7.1,0,9.83,9.83,0,0,1-4.22-2.27,7.12,7.12,0,0,1-.85-1,1.63,1.63,0,0,1-.25-.38c.05,0,.4.49,1.24,1.22a10,10,0,0,0,4.17,2.06,14.79,14.79,0,0,0,6.9-.08,29,29,0,0,0,7.8-3.5c2.63-1.57,5.08-3.19,7.49-4.37a22.62,22.62,0,0,1,6.77-2.18,12.93,12.93,0,0,1,4.79.19,8.06,8.06,0,0,1,1.24.41A1.92,1.92,0,0,1,403.33,376.84Z" style="fill:#fafafa"></path><path d="M326,313.32a2.29,2.29,0,0,1,.72-.3,4.77,4.77,0,0,1,.88-.24,8.72,8.72,0,0,1,1.2-.21,13.38,13.38,0,0,1,3.17,0,14.68,14.68,0,0,1,7.14,2.91,13,13,0,0,1,2.27,2.22,10.07,10.07,0,0,1,.72,1,6.54,6.54,0,0,1,.46.8c.23.45.33.7.3.72s-.59-.95-1.76-2.27a15.22,15.22,0,0,0-2.27-2.07,16.86,16.86,0,0,0-3.29-1.83,16.54,16.54,0,0,0-3.63-1,14.28,14.28,0,0,0-3.07-.11C327.05,313.06,326,313.42,326,313.32Z" style="fill:#fafafa"></path><path d="M417.09,439.53a1.27,1.27,0,0,1-.33-.06l-1-.22c-.84-.2-2.08-.48-3.69-.76a46.9,46.9,0,0,0-13.78-.33,45.66,45.66,0,0,0-9.27,2.17c-3.26,1.12-6.67,2.48-10.25,4-7.14,2.95-15,6.5-23.75,8.45-2.18.56-4.37.88-6.52,1.28s-4.29.6-6.41.72a90.68,90.68,0,0,1-12.17.18,92.43,92.43,0,0,1-20.31-3.42,89.44,89.44,0,0,1-13-4.89c-1.48-.69-2.59-1.32-3.36-1.71l-.87-.47c-.19-.1-.29-.16-.28-.17a1.17,1.17,0,0,1,.31.13l.89.41c.78.36,1.9,1,3.4,1.63a95.78,95.78,0,0,0,13,4.71,93.76,93.76,0,0,0,20.23,3.3,89.92,89.92,0,0,0,12.11-.21c2.1-.12,4.22-.46,6.37-.72s4.32-.72,6.48-1.28c8.72-1.93,16.53-5.46,23.69-8.38,3.58-1.48,7-2.83,10.29-3.94a46.5,46.5,0,0,1,9.36-2.13,45.36,45.36,0,0,1,13.87.51c1.61.31,2.84.62,3.68.85l.94.27Z" style="fill:#fafafa"></path><path d="M49.66,337.9c.37,1.11,8.06,11.85,13,19.29,4.13,6.23,2.25,7.42,0,13-3.91,9.69-19.29,26.35-13,54.92S73,463.32,73,463.32h44.52s19.17-20.38,17.45-50.1c-1.05-18.15-18.55-33.39-18.55-53.8l-.37-14.1Z" style="fill:#fafafa"></path><path d="M49.66,337.9l66.44,7.22.17,0v.17q.18,6.1.35,12.67c0,1.1.08,2.2.14,3.3l.09,1.67c0,.55.16,1.1.23,1.66a27.61,27.61,0,0,0,.62,3.34c.29,1.11.49,2.25.89,3.34a82,82,0,0,0,5.62,13.19c2.23,4.39,4.7,8.81,6.82,13.54a44.26,44.26,0,0,1,4.22,15.25,71.72,71.72,0,0,1-1.13,16.4A75.08,75.08,0,0,1,120,460.78c-.72.94-1.47,1.84-2.26,2.72l-.07.08H73l0,0A44.41,44.41,0,0,1,62,453.19a61.5,61.5,0,0,1-7.41-12.42,73.19,73.19,0,0,1-4.53-13.07,69.51,69.51,0,0,1-2.06-13c0-2.14-.15-4.25.07-6.32.09-1,.1-2.07.25-3.08s.3-2,.45-3a60.24,60.24,0,0,1,3.14-11.22,89.36,89.36,0,0,1,4.59-9.78c1.65-3,3.36-5.86,4.79-8.64.73-1.39,1.29-2.8,1.9-4.17a24.49,24.49,0,0,0,1.58-4,6.21,6.21,0,0,0-.44-3.91,21.28,21.28,0,0,0-1.84-3.33c-2.72-4.12-5.12-7.59-7.06-10.43s-3.43-5-4.41-6.54c-.49-.75-.85-1.33-1.08-1.73a3.11,3.11,0,0,1-.3-.62,5.63,5.63,0,0,0,.34.6c.24.39.62,1,1.11,1.7l4.48,6.49c2,2.83,4.39,6.29,7.13,10.39a22.13,22.13,0,0,1,1.88,3.36,6.58,6.58,0,0,1,.47,4.08,24.78,24.78,0,0,1-1.58,4.07c-.59,1.36-1.16,2.79-1.89,4.19-1.44,2.81-3.13,5.64-4.77,8.67a88.62,88.62,0,0,0-4.54,9.75,60.46,60.46,0,0,0-3.1,11.15c-.14,1-.29,2-.43,3s-.16,2-.25,3.06a62.28,62.28,0,0,0,0,6.27,68.5,68.5,0,0,0,2.06,12.91,73.14,73.14,0,0,0,4.52,13,61.21,61.21,0,0,0,7.36,12.32A44.14,44.14,0,0,0,73.16,463.1l-.13,0h44.52l-.19.08c.77-.85,1.52-1.75,2.23-2.68a74.62,74.62,0,0,0,14-30.89,71.16,71.16,0,0,0,1.13-16.27,43.86,43.86,0,0,0-4.16-15.08c-2.11-4.71-4.57-9.13-6.8-13.53a83.52,83.52,0,0,1-5.63-13.27c-.4-1.1-.6-2.25-.89-3.37a28.24,28.24,0,0,1-.62-3.38c-.08-.56-.19-1.12-.23-1.68l-.09-1.68c-.06-1.12-.11-2.23-.13-3.32q-.17-6.57-.32-12.67l.17.2Z" style="fill:#263238"></path><path d="M53.54,413.34c2-5.22,9.09-6,14.57-5s10.15,4.45,14.87,7.44,10,5.72,15.57,5.22c5.12-.47,9.54-3.61,14.17-5.86s10.49-3.55,14.68-.56a11.13,11.13,0,0,1,4.22,8.19,23.9,23.9,0,0,1-1.47,9.33,105.09,105.09,0,0,1-9.69,20.75c-1.2,2.07-3.1,5-5.2,6.11-1.77.95-4.41,1-7.15,1.26-7.34.63-13.82.29-21.18.59-3.59.15-7.36.21-10.56-1.44a20.14,20.14,0,0,1-5.73-5c-5-5.76-9.71-11.89-13-18.79s-5.09-14.65-4.12-22.22" style="fill:#FFC719"></path><path d="M116.34,345a4,4,0,0,1-.4.61,11,11,0,0,1-1.39,1.54,16.13,16.13,0,0,1-6.72,3.59,36,36,0,0,1-11.28.81A106.29,106.29,0,0,1,82.78,350a104,104,0,0,1-24-7.34c-3-1.29-5.27-2.49-6.85-3.35l-1.8-1a4.32,4.32,0,0,1-.62-.39,4.73,4.73,0,0,1,.67.3l1.84.93c1.61.8,4,1.95,6.91,3.2a110.68,110.68,0,0,0,24,7.15,109.31,109.31,0,0,0,13.7,1.57,36.41,36.41,0,0,0,11.17-.69,16.45,16.45,0,0,0,6.67-3.38A22.46,22.46,0,0,0,116.34,345Z" style="fill:#263238"></path><path d="M54.13,406.76a8.83,8.83,0,0,1,0-1.6c.06-1,.21-2.52.47-4.35a69.7,69.7,0,0,1,9.86-26.92c1-1.57,1.83-2.8,2.46-3.62A9.33,9.33,0,0,1,68,369a9.16,9.16,0,0,1-.84,1.37c-.57.85-1.36,2.11-2.3,3.69A77.17,77.17,0,0,0,55,400.87c-.3,1.81-.51,3.29-.63,4.31A10.23,10.23,0,0,1,54.13,406.76Z" style="fill:#fff"></path><path d="M57.06,344.66a25.35,25.35,0,0,1,2.33,2.55c1.4,1.61,3.39,3.77,5.49,6.27s3.83,5,4.42,7.1a10.36,10.36,0,0,1,.29,1.43c0,.44,0,.81,0,1.11a2.9,2.9,0,0,1-.18.92,11,11,0,0,0-.47-3.35c-.65-2-2.37-4.41-4.47-6.88s-4-4.69-5.37-6.36c-.67-.83-1.19-1.52-1.54-2A3.9,3.9,0,0,1,57.06,344.66Z" style="fill:#fff"></path><path d="M83.55,454.63s-.16-.05-.45-.2l-1.23-.67c-.53-.29-1.18-.67-1.9-1.16s-1.56-1-2.42-1.67-1.83-1.36-2.8-2.22-2-1.77-3-2.77a56.29,56.29,0,0,1-6-7.2,58.35,58.35,0,0,1-4.65-8.16c-.56-1.33-1.13-2.58-1.54-3.8s-.8-2.35-1.1-3.4-.52-2-.71-2.85a19.84,19.84,0,0,1-.42-2.18c-.08-.56-.15-1-.2-1.39a2.57,2.57,0,0,1,0-.49,1.54,1.54,0,0,1,.14.47l.3,1.37c.11.59.27,1.32.5,2.15s.43,1.79.78,2.82.68,2.17,1.16,3.35,1,2.43,1.57,3.74a57.94,57.94,0,0,0,4.64,8.07,58.62,58.62,0,0,0,5.93,7.16c1,1,2,2,3,2.79s1.87,1.59,2.73,2.25,1.67,1.22,2.37,1.72,1.32.91,1.84,1.22l1.18.76A2.43,2.43,0,0,1,83.55,454.63Z" style="fill:#fff"></path><path d="M317.65,210a5.66,5.66,0,0,1-.48-1.22L316,205.41a49.87,49.87,0,0,0-4.88-10.65,23.11,23.11,0,0,0-8.37-8,25,25,0,0,0-4.53-1.71,4.68,4.68,0,0,1,1.3.18,14.73,14.73,0,0,1,3.4,1.21,22.32,22.32,0,0,1,8.64,8,44.82,44.82,0,0,1,4.79,10.81c.46,1.44.79,2.62,1,3.44A6.63,6.63,0,0,1,317.65,210Z" style="fill:#fff"></path><path d="M116.71,368.35a15.72,15.72,0,0,1,18.3-6.79,18.91,18.91,0,0,1,9.88,8.9c3,5.5,3.2,11.52,3.36,17.8.13,5,.49,10.48-1.31,15.12s-5.38,8.8-10.15,10.23-10.62-.53-12.73-5l3-6.36s5.64,7.9,10.53,3.38,3.7-10.51,3.7-14.65c0-3-.37-9.11-.56-12.22a11.27,11.27,0,0,0-2.56-6.57,10.31,10.31,0,0,0-8.48-3.62c-9,.19-11.29,10.91-11.29,10.91Z" style="fill:#fafafa"></path><path d="M118.52,379.22a3.62,3.62,0,0,1,.14-.75,18.34,18.34,0,0,1,.68-2.06,16.41,16.41,0,0,1,1.59-3.05A12.16,12.16,0,0,1,124,370a10.05,10.05,0,0,1,5.2-1.88,11.28,11.28,0,0,1,6.23,1.18,10.55,10.55,0,0,1,4.71,5.17,12.39,12.39,0,0,1,.91,3.64c.08,1.26.12,2.52.18,3.8.22,5.14.53,10,.49,14.45a13.72,13.72,0,0,1-1.56,6.15,10.58,10.58,0,0,1-.79,1.25c-.32.37-.58.77-.92,1.09a6.91,6.91,0,0,1-1,.93l-.53.4c-.19.11-.4.19-.6.29a4.58,4.58,0,0,1-2.41.4,6.27,6.27,0,0,1-2.08-.65,11.3,11.3,0,0,1-2.79-2,16.1,16.1,0,0,1-1.45-1.62,2.74,2.74,0,0,1-.42-.62s.17.19.5.56a20.46,20.46,0,0,0,1.51,1.53A11.51,11.51,0,0,0,132,406a6.06,6.06,0,0,0,2,.58,4.31,4.31,0,0,0,2.23-.4c.18-.1.37-.17.55-.28l.5-.39a6.6,6.6,0,0,0,1-.89c.33-.32.58-.71.88-1.06a12.28,12.28,0,0,0,.75-1.21,13.43,13.43,0,0,0,1.46-6c0-4.4-.32-9.32-.53-14.41-.06-1.27-.1-2.54-.18-3.77a11.68,11.68,0,0,0-.86-3.49,10.1,10.1,0,0,0-4.47-4.94,10.77,10.77,0,0,0-6-1.18,9.77,9.77,0,0,0-5,1.75,12,12,0,0,0-3.08,3.2,18,18,0,0,0-1.64,3c-.37.86-.61,1.54-.76,2A6.79,6.79,0,0,1,118.52,379.22Z" style="fill:#263238"></path><path d="M124.16,408.34a10.38,10.38,0,0,0,2.42,2.93,11.15,11.15,0,0,0,4,2,11.54,11.54,0,0,0,5.83.06,13.69,13.69,0,0,0,6.1-3.56,19,19,0,0,0,4.4-6.87,26.31,26.31,0,0,0,1.33-9c0-1.59,0-3.21-.09-4.85s-.08-3.32-.17-5a38,38,0,0,0-1.47-9.67,21.8,21.8,0,0,0-4.39-7.89,17.26,17.26,0,0,0-6.58-4.79,14.54,14.54,0,0,0-7-.89,16.39,16.39,0,0,0-9.26,4.33,20.35,20.35,0,0,0-2.42,3s0-.09.11-.23l.38-.64a14.41,14.41,0,0,1,1.79-2.24,16.28,16.28,0,0,1,9.36-4.55,14.75,14.75,0,0,1,7.22.85,17.64,17.64,0,0,1,6.78,4.87,22.25,22.25,0,0,1,4.52,8.06,38.43,38.43,0,0,1,1.5,9.8c.09,1.69.12,3.37.17,5s.1,3.27.08,4.87a26.76,26.76,0,0,1-1.39,9.13,19.27,19.27,0,0,1-4.55,7,14,14,0,0,1-6.31,3.61,11.92,11.92,0,0,1-6-.13,11,11,0,0,1-4-2.12,9.15,9.15,0,0,1-1.86-2.18c-.16-.28-.26-.51-.33-.66S124.15,408.35,124.16,408.34Z" style="fill:#263238"></path><path d="M291.57,454c-.12-1.86-.23-4.56-.35-7.89-.25-6.66-.16-15.87-.49-26.05q-.15-4.17-.48-8.06a4.07,4.07,0,0,1-.53-.31q.33,4,.49,8.39c.33,10.16.3,19.38.64,26.05.17,3.33.33,6,.52,7.88.08.89.15,1.6.21,2.14a5.42,5.42,0,0,0,.1.74,3.57,3.57,0,0,0,0-.75C291.65,455.55,291.62,454.84,291.57,454Z" style="fill:#263238"></path><path d="M133,362.21c0,.08-.84-.19-2.19-.33a12.79,12.79,0,0,0-5.21.58,12.65,12.65,0,0,0-4.52,2.64c-1,.91-1.49,1.62-1.56,1.57a5.31,5.31,0,0,1,1.3-1.84,11.75,11.75,0,0,1,4.62-2.87,11.62,11.62,0,0,1,5.42-.45A5.48,5.48,0,0,1,133,362.21Z" style="fill:#fff"></path><path d="M138.39,371a4.77,4.77,0,0,0-3.86,1.18,5.47,5.47,0,0,0-1.39,4.35,4.46,4.46,0,0,0,2.83,3,22.44,22.44,0,0,0,4.16,1c2.14.43,4.43.3,6.6.6s5.35.14,6.57-.93a3.71,3.71,0,0,0,.56-5.3c-1-1.32-2.84-1.69-4.5-2l-11-1.86" style="fill:#ffbe9d"></path><path d="M140.7,380.54a32.29,32.29,0,0,1,4.73.37,22.19,22.19,0,0,0,5.08-.14,5.29,5.29,0,0,0,2.68-1,2.91,2.91,0,0,0,1.21-2.59,3.75,3.75,0,0,0-1.6-2.5,7.75,7.75,0,0,0-2.69-1.14c-1.87-.44-3.61-.69-5-1l-3.4-.68a6,6,0,0,1-1.23-.32,5.71,5.71,0,0,1,1.27.12l3.43.52c1.45.25,3.17.46,5.08.88a8.12,8.12,0,0,1,2.88,1.2,4.26,4.26,0,0,1,1.82,2.85,3.38,3.38,0,0,1-1.41,3,5.74,5.74,0,0,1-2.93,1.09,21.54,21.54,0,0,1-5.19,0c-1.46-.18-2.63-.39-3.43-.51A7.45,7.45,0,0,1,140.7,380.54Z" style="fill:#eb996e"></path><path d="M138,379.21a4.71,4.71,0,0,0-3.85,1.17,5.46,5.46,0,0,0-1.4,4.35,4.45,4.45,0,0,0,2.83,3,22.44,22.44,0,0,0,4.16,1c2.15.43,4.44.3,6.61.6s5.34.14,6.56-.94a3.69,3.69,0,0,0,.56-5.29c-1-1.32-2.84-1.7-4.5-2l-11-1.86" style="fill:#ffbe9d"></path><path d="M140.26,388.77a30.63,30.63,0,0,1,4.73.37,22.83,22.83,0,0,0,5.08-.15,5.35,5.35,0,0,0,2.69-1,2.88,2.88,0,0,0,1.2-2.6,3.76,3.76,0,0,0-1.6-2.49,7.67,7.67,0,0,0-2.69-1.14c-1.87-.44-3.61-.7-5-1l-3.4-.69a5.53,5.53,0,0,1-1.24-.32,6.56,6.56,0,0,1,1.27.12l3.43.52c1.45.26,3.17.47,5.08.89a8.28,8.28,0,0,1,2.88,1.19,4.25,4.25,0,0,1,1.82,2.85,3.41,3.41,0,0,1-1.41,3.06,5.8,5.8,0,0,1-2.93,1.09,21,21,0,0,1-5.19,0c-1.46-.18-2.62-.38-3.43-.51A7,7,0,0,1,140.26,388.77Z" style="fill:#eb996e"></path><path d="M136.29,388.35a4.74,4.74,0,0,0-3.86,1.17,5.47,5.47,0,0,0-1.39,4.35,4.46,4.46,0,0,0,2.83,3,22.44,22.44,0,0,0,4.16,1c2.15.43,4.43.31,6.6.61s5.35.13,6.57-.94a3.71,3.71,0,0,0,.56-5.3c-1-1.32-2.84-1.69-4.5-2l-11-1.85" style="fill:#ffbe9d"></path><path d="M138.6,397.9a32.29,32.29,0,0,1,4.73.37,22.19,22.19,0,0,0,5.08-.14,5.29,5.29,0,0,0,2.68-1,2.88,2.88,0,0,0,1.21-2.59,3.78,3.78,0,0,0-1.6-2.5,8.06,8.06,0,0,0-2.69-1.14c-1.87-.44-3.61-.69-5-1l-3.4-.68a5.31,5.31,0,0,1-1.23-.32,5.71,5.71,0,0,1,1.27.12l3.43.52c1.45.25,3.17.46,5.08.89a8.09,8.09,0,0,1,2.88,1.19,4.26,4.26,0,0,1,1.82,2.85,3.41,3.41,0,0,1-1.41,3.06,5.82,5.82,0,0,1-2.93,1.08,21.54,21.54,0,0,1-5.19,0c-1.46-.18-2.62-.39-3.43-.51A7.45,7.45,0,0,1,138.6,397.9Z" style="fill:#eb996e"></path><path d="M138,397.88a4.1,4.1,0,0,0-3.38,1,4.77,4.77,0,0,0-1.22,3.81,3.88,3.88,0,0,0,2.48,2.6,19.46,19.46,0,0,0,3.64.85c1.89.37,3.89.26,5.79.53s4.69.12,5.76-.83a3.25,3.25,0,0,0,.49-4.64c-.9-1.16-2.49-1.48-3.94-1.73L138,397.88" style="fill:#ffbe9d"></path><path d="M140.05,406.26a24.4,24.4,0,0,1,4.14.3,20.16,20.16,0,0,0,4.45-.14,4.7,4.7,0,0,0,2.34-.88,2.5,2.5,0,0,0,1-2.25,3.27,3.27,0,0,0-1.39-2.17,6.74,6.74,0,0,0-2.35-1c-1.63-.39-3.15-.61-4.4-.88l-3-.6a4.36,4.36,0,0,1-1.08-.3,4.84,4.84,0,0,1,1.11.1l3,.44c1.27.22,2.78.4,4.46.77a7.14,7.14,0,0,1,2.53,1,3.78,3.78,0,0,1,1.61,2.52,3,3,0,0,1-1.25,2.71,5.12,5.12,0,0,1-2.58,1,18.23,18.23,0,0,1-4.55,0c-1.29-.16-2.31-.34-3-.45A7.23,7.23,0,0,1,140.05,406.26Z" style="fill:#eb996e"></path><g style="opacity:0.30000000000000004"><path d="M121.6,420.45c.25.22-.14,1.24-1.35,2.7a21.54,21.54,0,0,1-6.33,4.94,30.35,30.35,0,0,1-11.53,3.31,37.52,37.52,0,0,1-14.52-1.8A50,50,0,0,1,75,423.2,66.3,66.3,0,0,1,66,415.85c-4.65-4.6-7-7.91-6.49-8.41s3.76,1.85,8.87,5.6,12.22,8.77,21.06,11.6a39.13,39.13,0,0,0,12.68,2,33.49,33.49,0,0,0,10.29-1.88C118.12,422.68,121,419.89,121.6,420.45Z" style="fill:#fff"></path></g><g style="opacity:0.30000000000000004"><path d="M118.16,413.07c.5.5.4,1.56-.39,2.8a10.75,10.75,0,0,1-9.71,4.49c-1.46-.2-2.33-.81-2.38-1.52s.64-1.41,1.68-2.09a32.39,32.39,0,0,1,4-2.07,34.44,34.44,0,0,1,4.15-1.68C116.66,412.65,117.64,412.56,118.16,413.07Z" style="fill:#fff"></path></g><path d="M248.79,217.06s-10.53,22.24,14.58,30L322,214.63S319.88,184.5,298.41,180Z" style="fill:#e0e0e0"></path><path d="M248.79,217.06l.22-.19.68-.53,2.67-2,10.14-7.65,35.76-26.84.09-.06.1,0a23.71,23.71,0,0,1,9.43,4.27,25,25,0,0,1,4,3.68,30.29,30.29,0,0,1,3.29,4.45,46,46,0,0,1,4.65,10.37A59.18,59.18,0,0,1,322.2,214l.06.57v.17l-.15.08-58.65,32.41-.08,0-.08,0a32.94,32.94,0,0,1-7.74-3.48,20.42,20.42,0,0,1-5.6-5.13,17.14,17.14,0,0,1-2.84-6,20.66,20.66,0,0,1-.63-5.54,26.41,26.41,0,0,1,1.3-7.6c.27-.84.52-1.47.7-1.89s.29-.61.29-.61l-.24.64c-.16.42-.39,1.05-.64,1.9a27.35,27.35,0,0,0-1.19,7.57,20.6,20.6,0,0,0,.67,5.46,17.09,17.09,0,0,0,2.84,5.85,20,20,0,0,0,5.53,5,32.51,32.51,0,0,0,7.67,3.41l-.16,0,58.6-32.52-.13.25c0-.18,0-.37-.05-.55a60.43,60.43,0,0,0-2.4-11.4,45.53,45.53,0,0,0-4.59-10.26,30.1,30.1,0,0,0-3.23-4.39,25,25,0,0,0-3.89-3.62,23.41,23.41,0,0,0-9.22-4.2l.19,0-35.84,26.65-10.23,7.55-2.73,2-.71.5Z" style="fill:#263238"></path><path d="M263.37,243c-10.63-2-13.82-15.17-12.41-20.23a13.11,13.11,0,0,1,11.45-9.32c3.64-.24,7.27,1.08,10.91.78,5.83-.48,10.58-4.95,16.26-6.38,7.86-2,18,2.55,21.68,9.41Z" style="fill:#FFC719"></path><path d="M286.54,223.57s-.12-.08-.31-.27a5.11,5.11,0,0,1-.73-1,17.69,17.69,0,0,1-1.68-4.08,31.88,31.88,0,0,1-1.18-6.44,21.19,21.19,0,0,1,.68-8,46.07,46.07,0,0,1,6.92-12.75c1.1-1.5,2-2.68,2.67-3.49a10,10,0,0,1,1-1.23,9.69,9.69,0,0,1-.89,1.35l-2.53,3.58a49.45,49.45,0,0,0-6.72,12.7,21.35,21.35,0,0,0-.7,7.8,33.81,33.81,0,0,0,1.05,6.37,19.7,19.7,0,0,0,1.51,4.08C286.16,223.14,286.58,223.53,286.54,223.57Z" style="fill:#fff"></path><path d="M280.2,218.1a4.07,4.07,0,0,1-.33-.91,20.79,20.79,0,0,1-.56-2.55,27.13,27.13,0,0,1,0-8.63A27.64,27.64,0,0,1,282,197.8a20.63,20.63,0,0,1,1.33-2.26,3.37,3.37,0,0,1,.59-.75c.07.05-.67,1.19-1.59,3.17a30.48,30.48,0,0,0-2.62,16.62C279.94,216.75,280.29,218.07,280.2,218.1Z" style="fill:#fff"></path><path d="M303.94,211.74c3.26-1.47,6.72-3,10.28-2.64a10.48,10.48,0,0,1,7,3.72l-11.76,5" style="fill:#FFC719"></path><path d="M320.87,216.31a1.67,1.67,0,0,1-.47,0c-.31-.05-.77-.1-1.34-.24a27.09,27.09,0,0,1-4.76-1.51,28.66,28.66,0,0,1-17.62-25.85,26.06,26.06,0,0,1,.33-5c.08-.59.2-1,.26-1.33a1.4,1.4,0,0,1,.14-.46s-.07.65-.2,1.81a30.86,30.86,0,0,0-.16,4.94,29.62,29.62,0,0,0,22.06,27.18A17.39,17.39,0,0,1,320.87,216.31Z" style="fill:#263238"></path><g style="opacity:0.30000000000000004"><path d="M304.8,213.42c-.28.68-1.37.91-2.83,1s-3.33.05-5.38.06-3.91.08-5.38,0-2.55-.28-2.84-.95.35-1.67,1.81-2.59a13.25,13.25,0,0,1,12.77-.1C304.43,211.76,305.07,212.77,304.8,213.42Z" style="fill:#fff"></path></g><path d="M261.35,278.83s-8.55-35.34-8.63-36.15-2.58-24.34,3.29-25.74c0,0,1-7.73,4.29-7.51l1.33,9.24s.48-14.52,7.67-16.32c0,0,1.41-2.33,3.36-2S274,208.44,274,213.9l1.54,9.63a18.91,18.91,0,0,0,5.88,10.95h0a3.9,3.9,0,0,0,5.34,0,39.71,39.71,0,0,1,18.5-10.35s.47,2.32-2.88,6.13c-4.31,4.9-5.2,12.68-7.53,16.73l-5,8.75a9.61,9.61,0,0,0-.91,7.47l4.92,10.2Z" style="fill:#ffbe9d"></path><path d="M267.59,231.52a4.64,4.64,0,0,1-.27-1.11c-.15-.72-.31-1.76-.47-3.06a65.07,65.07,0,0,1-.44-10.21A66.78,66.78,0,0,1,267.55,207c.25-1.28.49-2.31.69-3a5.15,5.15,0,0,1,.34-1.08,4.38,4.38,0,0,1-.15,1.12c-.13.72-.31,1.76-.51,3a84.33,84.33,0,0,0-1,10.11,85.56,85.56,0,0,0,.28,10.15c.12,1.3.23,2.35.31,3.07A5.14,5.14,0,0,1,267.59,231.52Z" style="fill:#eb996e"></path><path d="M262,234.27a8.65,8.65,0,0,1-.54-2.37A39.69,39.69,0,0,1,261,226a52.15,52.15,0,0,1,.35-5.85,10,10,0,0,1,.41-2.4c.17,0-.22,3.7-.24,8.25,0,2.28.13,4.33.26,5.82A14,14,0,0,1,262,234.27Z" style="fill:#eb996e"></path><path d="M255.65,238.38a14.41,14.41,0,0,1-.55-3.11,53.79,53.79,0,0,1-.35-7.62,62.25,62.25,0,0,1,.65-7.61A15.5,15.5,0,0,1,256,217a23.7,23.7,0,0,1-.26,3.14c-.19,1.93-.42,4.61-.49,7.57s0,5.64.19,7.57A28,28,0,0,1,255.65,238.38Z" style="fill:#eb996e"></path></g></svg>